<mxfile host="Electron" agent="Mozilla/5.0 (X11; Linux x86_64) AppleWebKit/537.36 (KHTML, like Gecko) draw.io/26.2.15 Chrome/134.0.6998.205 Electron/35.4.0 Safari/537.36" version="26.2.15">
  <diagram id="C5RBs43oDa-KdzZeNtuy" name="Page-1">
    <mxGraphModel dx="701" dy="889" grid="1" gridSize="10" guides="1" tooltips="1" connect="1" arrows="1" fold="1" page="1" pageScale="1" pageWidth="827" pageHeight="1169" math="0" shadow="0">
      <root>
        <mxCell id="WIyWlLk6GJQsqaUBKTNV-0" />
        <mxCell id="WIyWlLk6GJQsqaUBKTNV-1" parent="WIyWlLk6GJQsqaUBKTNV-0" />
        <mxCell id="jyDG9MxLNxctg-NhNLhG-4" value="Dac" style="swimlane;fontStyle=1;align=center;verticalAlign=top;childLayout=stackLayout;horizontal=1;startSize=26;horizontalStack=0;resizeParent=1;resizeParentMax=0;resizeLast=0;collapsible=1;marginBottom=0;whiteSpace=wrap;html=1;" parent="WIyWlLk6GJQsqaUBKTNV-1" vertex="1">
          <mxGeometry x="60" y="210" width="230" height="158" as="geometry" />
        </mxCell>
        <mxCell id="jyDG9MxLNxctg-NhNLhG-5" value="- dac: DAC&lt;div&gt;- dac_pin: DAC::DacPin&lt;/div&gt;" style="text;strokeColor=none;fillColor=none;align=left;verticalAlign=top;spacingLeft=4;spacingRight=4;overflow=hidden;rotatable=0;points=[[0,0.5],[1,0.5]];portConstraint=eastwest;whiteSpace=wrap;html=1;" parent="jyDG9MxLNxctg-NhNLhG-4" vertex="1">
          <mxGeometry y="26" width="230" height="44" as="geometry" />
        </mxCell>
        <mxCell id="jyDG9MxLNxctg-NhNLhG-6" value="" style="line;strokeWidth=1;fillColor=none;align=left;verticalAlign=middle;spacingTop=-1;spacingLeft=3;spacingRight=3;rotatable=0;labelPosition=right;points=[];portConstraint=eastwest;strokeColor=inherit;" parent="jyDG9MxLNxctg-NhNLhG-4" vertex="1">
          <mxGeometry y="70" width="230" height="8" as="geometry" />
        </mxCell>
        <mxCell id="jyDG9MxLNxctg-NhNLhG-7" value="&lt;div&gt;+ new(dac: DAC, dac_pin: DAC::DacPin, clock: Hertz, clocks: &amp;amp;Clocks): Self&lt;/div&gt;&lt;div&gt;+ write(value: u16)&lt;/div&gt;&lt;div&gt;+ release(): (DAC, DAC::DacPin)&lt;/div&gt;" style="text;strokeColor=none;fillColor=none;align=left;verticalAlign=top;spacingLeft=4;spacingRight=4;overflow=hidden;rotatable=0;points=[[0,0.5],[1,0.5]];portConstraint=eastwest;whiteSpace=wrap;html=1;" parent="jyDG9MxLNxctg-NhNLhG-4" vertex="1">
          <mxGeometry y="78" width="230" height="80" as="geometry" />
        </mxCell>
        <mxCell id="65UYhqAfBHsc6nm_UJ0b-0" value="«interface»&lt;br&gt;&lt;b&gt;Instance&lt;/b&gt;" style="html=1;whiteSpace=wrap;" parent="WIyWlLk6GJQsqaUBKTNV-1" vertex="1">
          <mxGeometry x="95" y="405" width="160" height="50" as="geometry" />
        </mxCell>
        <mxCell id="65UYhqAfBHsc6nm_UJ0b-1" value="DAC0" style="html=1;whiteSpace=wrap;" parent="WIyWlLk6GJQsqaUBKTNV-1" vertex="1">
          <mxGeometry x="45" y="535" width="100" height="50" as="geometry" />
        </mxCell>
        <mxCell id="65UYhqAfBHsc6nm_UJ0b-2" value="" style="endArrow=block;dashed=1;endFill=0;endSize=12;html=1;rounded=0;" parent="WIyWlLk6GJQsqaUBKTNV-1" source="65UYhqAfBHsc6nm_UJ0b-1" target="GweOaURvBW3NgvWnivtI-0" edge="1">
          <mxGeometry width="160" relative="1" as="geometry">
            <mxPoint x="-25" y="445" as="sourcePoint" />
            <mxPoint x="345" y="505" as="targetPoint" />
          </mxGeometry>
        </mxCell>
        <mxCell id="GweOaURvBW3NgvWnivtI-0" value="+ ptr(): *const RegisterBlock" style="rounded=0;whiteSpace=wrap;html=1;align=left;" vertex="1" parent="WIyWlLk6GJQsqaUBKTNV-1">
          <mxGeometry x="95" y="455" width="160" height="30" as="geometry" />
        </mxCell>
        <mxCell id="GweOaURvBW3NgvWnivtI-2" value="DAC1" style="html=1;whiteSpace=wrap;" vertex="1" parent="WIyWlLk6GJQsqaUBKTNV-1">
          <mxGeometry x="205" y="535" width="100" height="50" as="geometry" />
        </mxCell>
        <mxCell id="GweOaURvBW3NgvWnivtI-3" value="" style="endArrow=block;dashed=1;endFill=0;endSize=12;html=1;rounded=0;" edge="1" parent="WIyWlLk6GJQsqaUBKTNV-1" source="GweOaURvBW3NgvWnivtI-2" target="GweOaURvBW3NgvWnivtI-0">
          <mxGeometry width="160" relative="1" as="geometry">
            <mxPoint x="15" y="605" as="sourcePoint" />
            <mxPoint x="175" y="605" as="targetPoint" />
          </mxGeometry>
        </mxCell>
      </root>
    </mxGraphModel>
  </diagram>
</mxfile>
